# AST/ASF file generated using VICON BodyLanguage
# -----------------------------------------------
:version 1.10
:name VICON
:units
  mass 1.0
  length 0.45
  angle deg
:documentation
   .ast/.asf automatically generated from VICON data using
   VICON BodyBuilder and BodyLanguage model FoxedUp or BRILLIANT.MOD
:root
   order TX TY TZ RX RY RZ
   axis XYZ
   position 0 0 0  
   orientation 0 0 0 
:bonedata
  begin
     id 1 
     name lhipjoint
     direction 0.78388 -0.462562 0.414208 
     length 3.01181 
     axis 0 0 0  XYZ
  end
  begin
     id 2 
     name lfemur
     direction 0.34202 -0.939693 0  
     length 6.04673  
     axis 0 0 20  XYZ
    dof rx ry rz
    limits (-160.0 20.0)
           (-70.0 70.0)
           (-60.0 70.0)
  end
  begin
     id 3 
     name ltibia
     direction 0.34202 -0.939693 0   
     length 7.211   
     axis 0 0 20   XYZ
    dof rx
    limits (-10.0 170.0)
  end
  begin
     id 4 
     name lfoot
     direction 0.121887 -0.334882 0.934344   
     length 2.13567   
     axis -90 7.62852e-016 20   XYZ
    dof rx rz
    limits (-45.0 90.0)
           (-70.0 20.0)
  end
  begin
     id 5 
     name ltoes
     direction 1.53555e-011 -4.2179e-011 1   
     length 1.05957   
     axis -90 7.62852e-016 20   XYZ
    dof rx
    limits (-90.0 20.0)
  end
  begin
     id 6 
     name rhipjoint
     direction -0.769387 -0.475875 0.426129   
     length 2.92756  
     axis 0 0 0  XYZ 
  end
  begin
     id 7 
     name rfemur
     direction -0.34202 -0.939693 0   
     length 6.35468   
     axis 0 0 -20   XYZ
    dof rx ry rz
    limits (-160.0 20.0)
           (-70.0 70.0)
           (-70.0 60.0)
  end
  begin
     id 8 
     name rtibia
     direction -0.34202 -0.939693 0   
     length 7.37886   
     axis 0 0 -20   XYZ
    dof rx
    limits (-10.0 170.0)
 end
 begin
     id 9 
     name rfoot
     direction -0.101763 -0.279592 0.954711   
     length 2.21478  
     axis -90 -7.62852e-016 -20   XYZ
    dof rx rz
    limits (-45.0 90.0)
           (-20.0 70.0)
  end
  begin
     id 10 
     name rtoes
     direction -1.53494e-011 -4.21851e-011 1   
     length 1.10506   
     axis -90 -7.62852e-016 -20   XYZ
    dof rx
    limits (-90.0 20.0)
  end
  begin
     id 11 
     name lowerback
     direction 0.00747405 0.999267 0.0375481   
     length 2.13259   
     axis 0 0 0   XYZ
    dof rx ry rz
    limits (-20.0 45.0)
           (-30.0 30.0)
           (-30.0 30.0)
  end
  begin
     id 12 
     name upperback
     direction 0.00661626 0.996177 0.0871029   
     length 2.10528   
     axis 0 0 0   XYZ
    dof rx ry rz
    limits (-20.0 45.0)
           (-30.0 30.0)
           (-30.0 30.0)
  end
  begin
     id 13 
     name thorax
     direction 0.00320659 0.997679 0.0680167   
     length 2.11338   
     axis 0 0 0   XYZ
    dof rx ry rz
    limits (-20.0 45.0)
           (-30.0 30.0)
           (-30.0 30.0)
  end
  begin
     id 14 
     name lowerneck
     direction 0.0374841 0.973033 0.227602   
     length 1.42765   
     axis 0 0 0   XYZ
    dof rx ry rz
    limits (-20.0 45.0)
           (-30.0 30.0)
           (-30.0 30.0)
  end
  begin
     id 15 
     name upperneck
     direction 0.00481585 0.989155 -0.146795   
     length 1.47593   
     axis 0 0 0   XYZ
    dof rx ry rz
    limits (-20.0 45.0)
           (-30.0 30.0)
           (-30.0 30.0)
  end
  begin
     id 16
     name head
     direction -0.00292522 0.997206 -0.0746423  
     length 1.48116  
     axis 0 0 0   XYZ
    dof rx ry rz
    limits (-20.0 45.0)
           (-30.0 30.0)
           (-30.0 30.0)
  end
  begin
     id 17 
     name lclavicle
     direction 0.951444 0.305606 0.0368784  
     length 3.01855  
     axis 0 0 0   XYZ
    dof ry rz
    limits (-20.0 10.0)
           (0.0 20.0)
  end
  begin
     id 18 
     name lhumerus
     direction 1 -4.48977e-011 2.61664e-027   
     length 5.52731   
     axis 180 -30 -90   XYZ
    dof rx ry rz
    limits (-60.0 90.0)
           (-90.0 90.0)
           (-90.0 90.0)
  end
  begin
     id 19
     name lradius
     direction 1 -4.48944e-011 8.22157e-027   
     length 3.11059   
     axis 180 -30 -90   XYZ
    dof rx
    limits (-10.0 170.0)
  end
  begin
     id 20
     name lwrist
     direction 1 -4.48976e-011 1.5779e-026   
     length 1.5553   
     axis -1.15221e-014 90 90   XYZ
    dof ry
    limits (-180.0 0.0)
 end
  begin
     id 21 
     name lhand
     direction 1 -4.49025e-011 3.1558e-026   
     length 0.419626   
     axis -2.01367e-014 90 90   XYZ
    dof rx rz
    limits (-90.0 90.0)
           (-45.0 45.0)
  end
  begin
     id 22 
     name lfingers
     direction 1 -4.4904e-011 6.31161e-026   
     length 0.338313   
     axis -4.02734e-014 90 90   XYZ
    dof rx
    limits (0.0 90.0)
  end
  begin
     id 23
     name lthumb
     direction 0.707107 -6.35004e-011 0.707107   
     length 0.485752   
     axis -90 45 2.85299e-015   XYZ
    dof rx rz
    limits (-45.0 45.0)
           (-45.0 45.0)
  end
  begin
     id 24 
     name rclavicle
     direction -0.968876 0.223791 0.105816   
     length 3.04177  
     axis 0 0 0   XYZ 
    dof ry rz
    limits (-10.0 20.0)
           (-20.0 0.0)
  end
  begin
     id 25 
     name rhumerus
     direction -1 -4.48962e-011 -1.01384e-027  
     length 5.25396   
     axis 180 30 90   XYZ
    dof rx ry rz
    limits (-90.0 60.0)
           (-90.0 90.0)
           (-90.0 90.0)
  end
  begin
     id 26 
     name rradius
     direction -1 -4.48955e-011 8.88542e-027   
     length 3.10567   
     axis 180 30 90   XYZ
    dof rx
    limits (-10.0 170.0)
  end
  begin
     id 27 
     name rwrist
     direction -1 -4.48994e-011 1.5779e-026   
     length 1.55283   
     axis -1.15221e-014 -90 -90   XYZ
    dof ry
    limits (-180.0 0.0)
  end
  begin
     id 28
     name rhand
     direction -1 -4.48891e-011 3.1558e-026   
     length 0.498676   
     axis -2.01367e-014 -90 -90   XYZ
    dof rx rz
    limits (-90.0 90.0)
           (-45.0 45.0)
  end
  begin
     id 29
     name rfingers
     direction -1 -4.48972e-011 6.31161e-026   
     length 0.402045   
     axis -4.02734e-014 -90 -90   XYZ
    dof rx
    limits (0.0 90.0)
  end
  begin
     id 30
     name rthumb
     direction -0.707107 -6.34849e-011 0.707107   
     length 0.577259   
     axis -90 -45 -2.85299e-015   XYZ
    dof rx rz
    limits (-45.0 45.0)
           (-45.0 45.0)
  end
:hierarchy
  begin
    root lhipjoint rhipjoint lowerback
    lhipjoint lfemur
    lfemur ltibia
    ltibia lfoot
    lfoot ltoes
    rhipjoint rfemur
    rfemur rtibia
    rtibia rfoot
    rfoot rtoes
    lowerback upperback
    upperback thorax
    thorax lowerneck lclavicle rclavicle
    lowerneck upperneck
    upperneck head
    lclavicle lhumerus
    lhumerus lradius
    lradius lwrist
    lwrist lhand lthumb
    lhand lfingers
    rclavicle rhumerus
    rhumerus rradius
    rradius rwrist
    rwrist rhand rthumb
    rhand rfingers
  end

#!OML:ASF H:\Pregnant\Project 1\Capture day 1\Session 1\femalepreg.ASF
:FULLY-SPECIFIED
:DEGREES
46
root 3.29974 14.712 31.8283 163.618 -85.3339 -141.226
lowerback -11.8751 2.77596 -2.58913
upperback -4.17721 3.80326 0.49803
thorax 2.06851 1.84617 2.47271
lowerneck -11.9722 12.7813 17.0608
upperneck 23.024 10.6067 10.4577
head 9.94776 7.22785 2.32076
rclavicle -3.74088e-014 -3.97569e-015
rhumerus -50.3605 7.31435 -78.3213
rradius 68.4759
rwrist -63.1481
rhand 26.8899 -43.7704
rfingers 7.12502
rthumb 50.8904 -64.5128
lclavicle -3.74088e-014 -3.97569e-015
lhumerus -29.7468 7.67408 73.5362
lradius 48.6265
lwrist 66.171
lhand -10.4853 14.4527
lfingers 7.12502
lthumb 15.5163 43.8501
rfemur -48.274 -0.391173 16.6423
rtibia 60.145
rfoot -20.672 -1.22573
rtoes -26.7175
lfemur -47.2511 -1.8209 -21.3296
ltibia 44.888
lfoot -17.5336 2.86486
ltoes -5.52692
47
root 3.28926 14.7303 31.7973 163.616 -85.3675 -141.253
lowerback -11.9796 2.76952 -2.57169
upperback -4.17668 3.79428 0.489474
thorax 2.12813 1.83984 2.45895
lowerneck -11.8895 12.718 16.9832
upperneck 23.0294 10.5907 10.3462
head 9.93172 7.20374 2.28302
rclavicle 3.89245e-014 1.50579e-014
rhumerus -50.5803 6.33493 -77.5207
rradius 67.5351
rwrist -62.7673
rhand 25.3177 -43.8105
rfingers 7.12502
rthumb 49.4527 -65.3159
lclavicle 3.89245e-014 1.50579e-014
lhumerus -30.0623 8.52309 72.7399
lradius 48.5411
lwrist 66.7827
lhand -11.1146 14.3722
lfingers 7.12502
lthumb 14.9101 43.8156
rfemur -47.6556 -0.898675 16.9565
rtibia 59.2426
rfoot -21.093 -0.83965
rtoes -25.9141
lfemur -46.9489 -1.92445 -21.1784
ltibia 44.5135
lfoot -17.4071 2.99762
ltoes -5.87904
48
root 3.28028 14.7479 31.7677 163.558 -85.3926 -141.22
lowerback -12.0656 2.77084 -2.51089
upperback -4.18192 3.79031 0.470069
thorax 2.17514 1.83602 2.40907
lowerneck -11.8204 12.6504 16.8744
upperneck 23.0186 10.5672 10.2643
head 9.90797 7.17592 2.25819
rclavicle -1.9717e-014 1.73937e-015
rhumerus -50.8 5.35234 -76.7312
rradius 66.6443
rwrist -62.3309
rhand 23.3713 -43.8535
rfingers 7.12502
rthumb 47.6617 -66.2226
lclavicle -1.9717e-014 1.73937e-015
lhumerus -30.3884 9.34203 71.9345
lradius 48.4857
lwrist 67.295
lhand -11.6966 14.3245
lfingers 7.12502
lthumb 14.3493 43.8086
rfemur -47.1066 -1.4477 17.3206
rtibia 58.4176
rfoot -21.4522 -0.508833
rtoes -24.4832
lfemur -46.6712 -2.03758 -21.0189
ltibia 44.1621
lfoot -17.2794 3.14895
ltoes -6.23585
49
root 3.27257 14.764 31.7392 163.498 -85.4114 -141.177
lowerback -12.1446 2.77162 -2.4176
upperback -4.19301 3.78147 0.444478
thorax 2.21514 1.82968 2.33335
lowerneck -11.7523 12.5819 16.7648
upperneck 23.0057 10.5494 10.1583
head 9.88471 7.14839 2.22599
rclavicle 1.4561e-014 5.96354e-016
rhumerus -51.0098 4.38008 -75.9639
rradius 65.7977
rwrist -61.8189
rhand 21.0018 -43.8498
rfingers 7.12502
rthumb 45.4671 -67.163
lclavicle 1.4561e-014 5.96354e-016
lhumerus -30.7317 10.1299 71.119
lradius 48.4587
lwrist 67.7222
lhand -12.2461 14.3223
lfingers 7.12502
lthumb 13.8198 43.8432
rfemur -46.6291 -2.0942 17.7434
rtibia 57.6612
rfoot -21.7565 -0.230698
rtoes -22.8819
lfemur -46.4265 -2.16402 -20.8538
ltibia 43.8383
lfoot -17.1521 3.31706
ltoes -6.56692
50
root 3.26619 14.7792 31.712 163.401 -85.4254 -141.083
lowerback -12.2234 2.76768 -2.29624
upperback -4.21133 3.76239 0.420003
thorax 2.24976 1.81813 2.24146
lowerneck -11.6868 12.5154 16.6181
upperneck 22.9896 10.5385 10.0698
head 9.85692 7.12288 2.20541
rclavicle -4.23039e-014 2.55438e-014
rhumerus -51.2029 3.49597 -75.2429
rradius 64.9927
rwrist -61.2673
rhand 18.2752 -43.8435
rfingers 7.12502
rthumb 42.925 -68.1159
lclavicle -4.23039e-014 2.55438e-014
lhumerus -31.0926 10.9212 70.3012
lradius 48.4503
lwrist 68.0445
lhand -12.7733 14.3548
lfingers 7.12502
lthumb 13.3118 43.9096
rfemur -46.2194 -2.81287 18.2036
rtibia 56.9584
rfoot -22.0083 0.0705811
rtoes -20.9554
lfemur -46.2156 -2.3002 -20.6808
ltibia 43.5318
lfoot -17.0234 3.49183
ltoes -6.84822
51
root 3.2605 14.7943 31.6855 163.332 -85.4278 -141.005
lowerback -12.3098 2.76157 -2.15258
upperback -4.23298 3.73768 0.388506
thorax 2.28725 1.80351 2.12932
lowerneck -11.6223 12.452 16.4997
upperneck 22.9768 10.5352 9.94016
head 9.83495 7.09933 2.16871
rclavicle 1.68718e-014 3.89618e-014
rhumerus -51.3751 2.69744 -74.6086
rradius 64.2165
rwrist -60.6872
rhand 15.2198 -43.8155
rfingers 7.12502
rthumb 40.0585 -69.0239
lclavicle 1.68718e-014 3.89618e-014
lhumerus -31.4668 11.6437 69.4836
lradius 48.4641
lwrist 68.3393
lhand -13.3434 14.3722
lfingers 7.12502
lthumb 12.7621 43.9622
rfemur -45.8403 -3.50229 18.6797
rtibia 56.2756
rfoot -22.2253 0.206302
rtoes -19.3832
lfemur -46.0238 -2.43565 -20.5018
ltibia 43.2328
lfoot -16.8953 3.66973
ltoes -7.06803
52
root 3.25501 14.8103 31.6586 163.326 -85.408 -140.998
lowerback -12.3918 2.76123 -1.99421
upperback -4.25224 3.71903 0.347682
thorax 2.32596 1.79183 1.99987
lowerneck -11.5744 12.3876 16.3903
upperneck 22.9671 10.5242 9.80901
head 9.81799 7.07317 2.13084
rclavicle -1.96051e-014 -2.17669e-014
rhumerus -51.5187 1.99135 -74.0618
rradius 63.4582
rwrist -60.1018
rhand 11.8475 -43.8089
rfingers 7.12502
rthumb 36.8764 -69.9053
lclavicle -1.96051e-014 -2.17669e-014
lhumerus -31.8419 12.3044 68.6708
lradius 48.4904
lwrist 68.5963
lhand -13.9901 14.3329
lfingers 7.12502
lthumb 12.1387 43.9607
rfemur -45.4679 -4.17721 19.1544
rtibia 55.5921
rfoot -22.3999 0.409679
rtoes -17.5744
lfemur -45.8124 -2.55039 -20.3163
ltibia 42.9203
lfoot -16.7675 3.84436
ltoes -7.2553
53
root 3.2495 14.8274 31.6319 163.382 -85.3728 -141.053
lowerback -12.4768 2.77173 -1.81113
upperback -4.2712 3.71229 0.28673
thorax 2.36892 1.78585 1.83748
lowerneck -11.5462 12.3199 16.3171
upperneck 22.9552 10.5008 9.65703
head 9.80768 7.04218 2.08108
rclavicle -2.43511e-014 8.15017e-015
rhumerus -51.6344 1.36176 -73.6365
rradius 62.7011
rwrist -59.5522
rhand 8.18486 -43.8795
rfingers 7.12502
rthumb 33.4028 -70.7938
lclavicle -2.43511e-014 8.15017e-015
lhumerus -32.2084 12.8343 67.8762
lradius 48.5298
lwrist 68.8734
lhand -14.7501 14.2332
lfingers 7.12502
lthumb 11.4058 43.903
rfemur -45.0679 -4.70734 19.5992
rtibia 54.8733
rfoot -22.5515 0.352186
rtoes -16.5549
lfemur -45.5833 -2.65992 -20.1268
ltibia 42.5809
lfoot -16.6278 4.03065
ltoes -7.4505
54
root 3.24293 14.8477 31.6032 163.55 -85.2985 -141.249
lowerback -12.5547 2.79791 -1.62758
upperback -4.27742 3.72713 0.213751
thorax 2.42123 1.79069 1.66539
lowerneck -11.5509 12.2511 16.2665
upperneck 22.942 10.4617 9.50907
head 9.80445 7.00644 2.03009
rclavicle 2.00151e-014 2.84262e-014
rhumerus -51.7046 0.805173 -73.322
rradius 61.9362
rwrist -59.0456
rhand 4.24747 -44.1058
rfingers 7.12502
rthumb 29.6519 -71.7555
lclavicle 2.00151e-014 2.84262e-014
lhumerus -32.5538 13.2584 67.1039
lradius 48.5678
lwrist 69.1454
lhand -15.6263 14.0193
lfingers 7.12502
lthumb 10.5607 43.734
rfemur -44.6023 -5.04744 19.9874
rtibia 54.1092
rfoot -22.6725 0.2665
rtoes -15.472
lfemur -45.2809 -2.71645 -19.9335
ltibia 42.1968
lfoot -16.4908 4.2134
ltoes -7.7161
55
root 3.23609 14.8694 31.5747 163.84 -85.2177 -141.564
lowerback -12.638 2.83288 -1.4289
upperback -4.28442 3.75231 0.118362
thorax 2.47795 1.80053 1.4634
lowerneck -11.5804 12.1801 16.2441
upperneck 22.9226 10.4077 9.36098
head 9.8056 6.96585 1.97494
rclavicle -1.76173e-014 -1.30204e-014
rhumerus -51.723 0.282833 -73.1099
rradius 61.1438
rwrist -58.6135
rhand 0.0527985 -44.563
rfingers 7.12502
rthumb 25.6409 -72.8565
lclavicle -1.76173e-014 -1.30204e-014
lhumerus -32.8793 13.5664 66.352
lradius 48.5977
lwrist 69.3996
lhand -16.5641 13.7587
lfingers 7.12502
lthumb 9.65592 43.5174
rfemur -44.0996 -5.21956 20.309
rtibia 53.2992
rfoot -22.7717 -4.4419e-005
rtoes -15.0306
lfemur -44.9533 -2.7807 -19.7444
ltibia 41.7703
lfoot -16.3345 4.4147
ltoes -8.01955
56
root 3.22916 14.8928 31.5463 164.234 -85.1368 -141.979
lowerback -12.7276 2.87541 -1.21947
upperback -4.2927 3.78659 0.00257331
thorax 2.5388 1.81479 1.23594
lowerneck -11.6442 12.1118 16.2459
upperneck 22.9038 10.3415 9.22181
head 9.81466 6.92284 1.9206
rclavicle 2.98674e-014 -1.78906e-015
rhumerus -51.6767 -0.241585 -72.9672
rradius 60.312
rwrist -58.2388
rhand -4.18356 -45.3842
rfingers 7.12502
rthumb 21.5777 -74.2021
lclavicle 2.98674e-014 -1.78906e-015
lhumerus -33.1751 13.7972 65.6217
lradius 48.6026
lwrist 69.5842
lhand -17.4898 13.4711
lfingers 7.12502
lthumb 8.76269 43.2692
rfemur -43.5742 -5.21394 20.5438
rtibia 52.4598
rfoot -22.8444 -0.331842
rtoes -14.7362
lfemur -44.6069 -2.85324 -19.5628
ltibia 41.3039
lfoot -16.1611 4.63046
ltoes -8.39076
57
root 3.22206 14.9167 31.5178 164.742 -85.0558 -142.498
lowerback -12.8309 2.92199 -1.008
upperback -4.30148 3.82617 -0.128277
thorax 2.60785 1.83158 0.993347
lowerneck -11.7367 12.0495 16.2488
upperneck 22.8813 10.2728 9.1003
head 9.82685 6.88069 1.87359
rclavicle -9.5193e-014 -7.4743e-014
rhumerus -51.5603 -0.80316 -72.8548
rradius 59.4334
rwrist -57.9337
rhand -8.31821 -46.5533
rfingers 7.12502
rthumb 17.6026 -75.7764
lclavicle -9.5193e-014 -7.4743e-014
lhumerus -33.4396 13.9837 64.9079
lradius 48.5708
lwrist 69.6735
lhand -18.3129 13.1941
lfingers 7.12502
lthumb 7.96834 43.0239
rfemur -43.0472 -5.09615 20.715
rtibia 51.6107
rfoot -22.8948 -0.70034
rtoes -14.7197
lfemur -44.2545 -2.93297 -19.3881
ltibia 40.8133
lfoot -15.9784 4.85492
ltoes -8.77547
58
root 3.21518 14.9404 31.4891 165.318 -84.9795 -143.071
lowerback -12.9465 2.97013 -0.805244
upperback -4.31562 3.86824 -0.260814
thorax 2.67783 1.84961 0.754833
lowerneck -11.8466 11.9944 16.2326
upperneck 22.8542 10.2095 9.00291
head 9.83792 6.84203 1.8389
rclavicle -4.85283e-014 1.09332e-014
rhumerus -51.3776 -1.3905 -72.7337
rradius 58.5005
rwrist -57.7081
rhand -12.0589 -48.0753
rfingers 7.12502
rthumb 14.0003 -77.5839
lclavicle -4.85283e-014 1.09332e-014
lhumerus -33.6793 14.1686 64.2198
lradius 48.4946
lwrist 69.6421
lhand -18.9567 12.9553
lfingers 7.12502
lthumb 7.34692 42.8077
rfemur -42.546 -4.91841 20.8341
rtibia 50.7809
rfoot -22.9281 -1.00541
rtoes -14.7299
lfemur -43.9139 -3.02006 -19.2173
ltibia 40.314
lfoot -15.7908 5.07682
ltoes -9.10273
